<?xml version="1.0" encoding="utf-8"?>
<!-- Generator: Adobe Illustrator 27.1.0, SVG Export Plug-In . SVG Version: 6.00 Build 0)  -->
<svg version="1.1" id="Camada_1" xmlns="http://www.w3.org/2000/svg" xmlns:xlink="http://www.w3.org/1999/xlink" x="0px" y="0px"
	 viewBox="0 0 931 385" style="enable-background:new 0 0 931 385;" xml:space="preserve">
<style type="text/css">
	.st0{fill:#29E31B;}
	.st1{fill:#FFFFFF;}
</style>
<g>
	<g>
		<g>
			<path class="st0" d="M101.5,35.1l0,16.8c-5.4,0.8-9.5,3.2-12.2,7.2c-2.7,4-4,9.6-4,17l-0.2,114.4l0,6c0,2.1,0.4,4.4,1.3,6.7
				c0.9,2.4,2,4.4,3.4,6c1.5,1.8,3,3.2,4.7,4c1.7,0.8,3.9,1.3,6.8,1.6l0,16.9c-17.9,0-33.5-4.7-46.6-14
				c-11.6-8.2-20.4-19.3-26.3-33.2c-5.9-13.9-8.8-30.4-8.8-49.4c0-13.9,1.9-26.9,5.8-39c3.8-12,9.4-22.5,16.7-31.3
				c7.4-8.9,16.2-16.1,26.5-21.6C78.9,37.7,88.8,35,98.3,35L101.5,35.1z M112.4,52l0-16.8c4.5,0.7,8.2,1.5,11,2.4
				c2.8,0.8,7.9,2.6,15.3,5.3c4.7,1.7,7.8,2.5,9.4,2.5c2.7,0,4.7-1.2,6.1-3.6l1.8-3.3c1.1-2.2,3.2-3.3,6.2-3.3
				c2.5,0,4.4,0.7,5.7,2.2c1.3,1.5,2,3.6,2,6.5l-0.1,57.6c0,3.7-0.8,6.4-2.5,8c-1.7,1.7-3.6,2.5-5.7,2.5c-2.2,0-4-0.7-5.3-2.2
				c-1.3-1.4-2.4-3.8-3.2-7c-1.9-7.3-3.8-13-5.7-17.2c-4-8.8-8.5-15.9-13.5-21.3c-3.4-3.7-6.8-6.5-10.2-8.5
				C120.3,53.9,116.6,52.6,112.4,52z M112.6,231.6l0-16.9c7.2-0.5,14.8-3.3,22.7-8.1c4.2-2.7,8-6.2,11.4-10.7
				c3.3-4.5,5.8-9.4,7.5-14.7c0.9-3,2-5.1,3.3-6.3c1.2-1.2,2.9-1.9,4.9-1.9c2.2,0,4.1,0.8,5.5,2.5c1.5,1.7,2.2,3.7,2.2,6.2
				c0,4.2-1.6,9.2-4.8,15.1c-3.2,5.9-7.3,11.3-12.3,16.3c-6.1,6.1-12.4,10.6-18.8,13.5C127.8,229.6,120.6,231.2,112.6,231.6z"/>
			<path class="st0" d="M211.3,87.6L226,112l-0.1,74.2c0,6.5,1.1,11.8,3.2,15.9c2.2,4.2,5.6,7.6,10.3,10.3l4.2,2.4
				c2.4,1.4,3.6,3.5,3.6,6.2c0,2.1-0.9,3.9-2.6,5.3c-1.5,1.2-4.5,1.8-9.1,1.8l-32,0c-8.4,0-12.6-2.4-12.6-7.2c0-1.7,0.4-3,1.3-3.9
				c0.9-1,2.8-2.3,5.8-3.9c8.9-4.9,13.3-13.8,13.3-26.7L211.3,87.6z M269.4,39.1l73.5,128l-0.1,61.1l-37.8,0L211.2,66
				c-2-3.5-3.7-6-5-7.3c-1.3-1.4-3-2.4-5-3.1l-5.3-1.9c-1.4-0.5-2.5-1.3-3.3-2.5c-0.8-1.2-1.2-2.5-1.2-4c0-1.6,0.4-3,1.3-4.4
				c0.8-1.3,1.9-2.3,3.3-2.8c1.6-0.6,5.8-1,12.7-1L269.4,39.1z M342.9,145l-14.6-24.8l0.1-38.3c0-7.8-1.1-13.7-3.4-17.8
				c-2.3-4.1-6.2-7.6-12-10.6c-1.9-0.9-3.3-1.9-4-3c-0.7-1.1-1.1-2.4-1.1-4.1c0-2.5,0.8-4.3,2.4-5.5c1.6-1.2,4.2-1.7,7.8-1.7l34.6,0
				c4.7,0,7.8,0.8,9.3,2.2c1.6,1.5,2.3,3.2,2.3,5.3c0,1.9-0.4,3.4-1.3,4.4c-0.9,1-3,2.3-6.3,3.9c-4.9,2.5-8.6,6.3-11.1,11.5
				c-1.8,3.8-2.6,8.9-2.7,15.4L342.9,145z"/>
			<path class="st0" d="M457,39.4l-0.2,189l-61.6-0.1l-3.6,0c-3.3,0-5.9-0.6-7.7-1.9c-1.8-1.2-2.7-3-2.7-5.3c0-3.8,1.9-6.3,5.5-7.5
				c3-1,4.8-1.6,5.3-1.9c0.5-0.2,1-0.8,1.6-1.6c1.1-1.5,1.7-3.8,1.7-7.1l0.2-138.6c0-3.2-0.5-5.6-1.7-7.1c-0.6-0.8-1.1-1.4-1.6-1.6
				c-0.5-0.2-2.3-0.9-5.3-1.9c-3.7-1.2-5.5-3.7-5.5-7.5c0-2.3,0.9-4.1,2.7-5.3c1.8-1.2,4.4-1.9,7.7-1.9l3.6,0L457,39.4z
				 M499.9,130.5c8.3,1.7,14.7,3.3,19.2,4.9c4.5,1.6,8.5,3.6,12.1,6c6.2,4,10.9,9.2,14.2,15.7c3.3,6.5,4.9,13.8,4.9,21.8
				c0,15.8-5.9,28.1-17.5,36.9c-6,4.6-12.6,7.9-19.9,9.7c-7.3,1.9-16.7,2.8-28.5,2.8l-16.5,0l0-14.5c3.7-0.3,6.6-0.8,8.7-1.6
				c2.1-0.8,4-2.1,5.7-3.9c3.1-3.4,4.6-8.7,4.6-15.9l0-31.4c0-4.6-0.4-8.2-1.2-10.8c-0.8-2.6-2.2-4.9-4.4-7.1
				c-1.6-1.7-3.3-2.9-5.1-3.6c-1.8-0.7-4.5-1.3-7.9-1.8l0-14.4c3.4-0.3,6.1-0.7,8-1.4c1.9-0.6,3.6-1.7,5.2-3.2
				c1.5-1.4,2.7-3.2,3.7-5.4c1-2.2,1.6-4.2,1.7-6.1l0-7.6l0-24c0-2.5-0.4-5.1-1.2-7.8c-0.8-2.7-1.8-4.9-3-6.4
				c-1.8-2.1-3.7-3.7-5.9-4.7c-2.2-1-5.1-1.7-8.8-2.1l0-15.2l15.9,0c21,0,37.1,4.4,48.2,13.1c5.1,4,8.9,8.8,11.6,14.4
				c2.7,5.6,4,11.7,4,18.3c0,6.5-1.4,12.6-4.1,18.3c-2.7,5.7-6.5,10.5-11.4,14.2c-3.6,2.9-7.8,5.3-12.5,7.2
				C515.2,126.7,508.5,128.6,499.9,130.5z"/>
			<path class="st0" d="M644,50.8c-4.7,1.7-8,3.9-10,6.8c-1.9,2.9-2.9,7.1-2.9,12.6L631,193.9c0,8.1,1.1,13.8,3.3,17.2
				c1.7,2.8,4.9,4.8,9.5,6l0,15.2c-20.5-1.7-37.6-9.4-51.5-23.2c-18-17.9-26.9-42.9-26.9-74.9c0-16.1,2.4-30.6,7.2-43.5
				c4.8-13,11.8-24,21.2-33c7.1-6.9,14.8-12.2,23-15.8c8.2-3.6,17.3-5.6,27.3-6.1L644,50.8z M655.4,50.8l0-15
				c10,0.5,19.1,2.5,27.3,6.1c8.3,3.6,15.9,8.9,23,15.8c18.8,18.4,28.2,43.9,28.1,76.6c0,32-9.1,57-27.1,74.9
				c-13.9,13.8-31.1,21.5-51.7,23.1l0-15.2c2.4-0.6,4.3-1.3,5.6-2.1c1.3-0.9,2.6-2.1,3.7-3.8c2.5-3.8,3.8-9.5,3.8-17.2l0.2-123.8
				c0-4.9-0.8-8.8-2.5-11.6c-1.1-1.9-2.4-3.5-3.9-4.6C660.4,52.9,658.2,51.8,655.4,50.8z"/>
			<path class="st0" d="M826.5,64.1l69.4,141.7c1.7,3.2,3.9,5.6,6.8,7.1c2.5,1.3,4.2,2.5,5,3.6c0.9,1.1,1.3,2.6,1.3,4.6
				c0,2.5-0.9,4.5-2.8,5.9c-1.6,1.3-4.9,1.9-10,1.9l-64.9-0.1c-5,0-8.2-0.3-9.7-1c-3.2-1.4-4.8-3.7-4.8-7.1c0-1.2,0.3-2.2,1-3.1
				c0.6-0.9,1.8-2,3.6-3.2c3.1-2.3,4.7-4.4,4.6-6.4c-0.1-1.6-0.9-3.9-2.5-7.1L755.7,64c-1.1-2.3-2.3-4.1-3.6-5.5
				c-1.3-1.3-3-2.6-5.1-3.7c-1.8-0.9-3.1-1.9-3.8-3.1c-0.7-1.1-1-2.6-1-4.6c0-2.8,1-4.7,3-5.8c2-1.1,5.5-1.7,10.6-1.6l64.5,0.1
				c4.7,0,8.1,0.6,10.2,1.8c2.1,1.2,3.1,3.1,3.1,5.8c0,2.7-1.5,5-4.6,7.1c-1.4,1-2.3,1.9-2.8,2.6c-0.5,0.7-0.8,1.6-0.8,2.8
				C825.4,61.2,825.7,62.6,826.5,64.1z M792.2,161.2l7.6,15.8l-8.6,14c-3.1,5.2-4.7,9.3-4.7,12.3c0,4.4,2.5,7.7,7.5,9.7
				c2.8,1.1,4.7,2.2,5.7,3.3c1,1.1,1.5,2.6,1.5,4.6c0,2.6-1.1,4.7-3.3,6.4c-0.8,0.6-1.8,1.1-2.8,1.2c-1,0.2-3,0.3-5.8,0.3l-35.7,0
				c-3,0-5.3-0.6-7-1.9c-1.7-1.2-2.6-3-2.6-5.2c0-1.8,0.5-3.2,1.6-4.4c1.1-1.2,2.9-2.2,5.6-3.2c6.9-2.7,12.3-7,16.1-13.1
				L792.2,161.2z M857.6,102.5l-7.7-15.4l7.8-13.1c1.8-3,2.6-5.7,2.6-7.9c0-2-0.6-4-1.9-6s-2.9-3.4-4.9-4.3l-4.8-2.2
				c-0.9-0.5-1.7-1.3-2.4-2.6c-0.7-1.3-1-2.6-1-3.9c0-2.2,0.8-4,2.4-5.3c1.6-1.3,3.6-1.9,6.2-1.9l40,0.1c2.6,0,4.7,0.6,6.4,1.7
				c1.7,1.2,2.6,2.7,2.6,4.5c0,2.2-0.8,4.2-2.5,5.8c-0.6,0.6-2.6,1.7-5.8,3.5c-6.6,3.6-12,8.8-16.4,15.6L857.6,102.5z"/>
		</g>
	</g>
	<g>
		<path class="st1" d="M516.7,269.6c-4.6-2.5-9.2-3.8-13.7-3.8c-5.2,0-10,1.3-14.2,3.9c-4.3,2.6-7.7,6.2-10.1,10.8
			c-2.5,4.6-3.7,9.7-3.7,15.3c0,5.6,1.2,10.7,3.7,15.3c2.5,4.6,5.8,8.2,10.1,10.8c4.3,2.6,9,3.9,14.2,3.9c4.2,0,8.6-1.1,13.3-3.2
			c4.6-2.2,8.8-5.1,12.4-8.8l15.8,17c-5.6,5.9-12.3,10.6-20,14.1c-7.7,3.5-15.4,5.2-22.9,5.2c-10.2,0-19.5-2.4-27.7-7.1
			s-14.7-11.2-19.4-19.3c-4.7-8.2-7.1-17.3-7-27.4c0-10,2.4-19.1,7.3-27.1c4.8-8.1,11.4-14.4,19.9-19c8.4-4.6,17.8-6.9,28.2-6.9
			c7.7,0,15.2,1.6,22.7,4.8c7.5,3.2,13.8,7.6,19,13.1l-15.7,18.9C525.3,275.5,521.3,272.1,516.7,269.6z"/>
		<path class="st1" d="M632,250.1c8.5,4.6,15.2,11,20,19c4.9,8.1,7.3,17.1,7.3,27.1c0,10.1-2.5,19.3-7.3,27.4
			c-4.9,8.2-11.6,14.6-20.1,19.3c-8.5,4.7-18,7.1-28.5,7c-10.5,0-20-2.4-28.5-7c-8.5-4.7-15.2-11.1-20-19.3
			c-4.9-8.2-7.3-17.4-7.3-27.5c0-10,2.5-19.1,7.3-27.1c4.9-8.1,11.6-14.4,20.1-19c8.5-4.6,18-6.9,28.5-6.9
			C614,243.1,623.5,245.4,632,250.1z M589.5,269.9c-4.4,2.6-7.8,6.3-10.4,11c-2.6,4.7-3.8,9.8-3.9,15.4c0,5.7,1.3,10.9,3.9,15.6
			c2.6,4.7,6.1,8.4,10.4,11.1c4.3,2.7,9,4.1,14.1,4.1c5.1,0,9.8-1.3,14.1-4c4.3-2.7,7.6-6.4,10.1-11c2.5-4.7,3.7-9.8,3.7-15.5
			c0-5.6-1.2-10.7-3.7-15.4c-2.5-4.7-5.8-8.3-10.1-11s-9-4-14.1-4C598.6,266,593.9,267.3,589.5,269.9z"/>
		<path class="st1" d="M660.4,244.8l88.6,0.1l0,22.3l-31,0l-0.1,81.1l-27,0l0.1-81.1l-30.7,0L660.4,244.8z"/>
		<path class="st1" d="M759.9,244.9l27,0l-0.1,103.4l-27,0L759.9,244.9z"/>
		<path class="st1" d="M882.7,348.5l-7.1-18.3l-44.7-0.1l-7.2,18.3l-27.7,0L840.5,245l27.7,0l43.2,103.4L882.7,348.5z M839.1,309.5
			l28.6,0l-14.1-36.9L839.1,309.5z"/>
	</g>
</g>
</svg>
